<svg id="Capa_1" enable-background="new 0 0 512 512" height="512" viewBox="0 0 512 512" width="512" xmlns="http://www.w3.org/2000/svg"><g><g><g><g><g fill="#95d6a4"><path d="m301.653 128.19c-.004-.004-.006-.007-.009-.011l-6.295-6.253c-8.666-8.608-9.041-22.505-.851-31.567h.021c.027-.031.049-.064.076-.095 9.218-10.418 18.543-21.421 27.588-32.778 16.837-21.139 5.038-51.29-19.236-57.486h-128.689c-30.116 0-47.06 34.824-28.297 58.381 50.623 63.559 110.039 116.05 110.039 116.05s20.068-17.73 46.812-45.054c-.385-.393-.775-.796-1.159-1.187z"/><path d="m447.843 362.655c0-68.433-73.852-159.799-138.965-227.059 0 0-.001 0-.001.001-17.869-18.374 2.382 2.403-13.529-13.67-5.131-5.096-7.33-12.045-6.592-18.748h-96.492c-69.633 67.091-171.397 178.849-171.397 258.995 0 1.368.013 2.733.04 4.094 1.58 81.186 68.857 145.732 150.057 145.732h144.891c72.211-8.961 131.988-69.582 131.988-149.345z"/></g><g fill="#77ce8e"><path d="m309.384 58.381c-13.852 17.391-28.361 33.95-42.132 48.835 9.227 8.963 18.955 18.664 28.886 28.922 20.558-20.656 46.193-47.993 69.901-77.758 18.763-23.556 1.819-58.38-28.297-58.38h-56.655c30.115 0 47.059 34.824 28.297 58.381z"/><path d="m319.736 103.179h-48.776c-1.239 1.354-2.479 2.71-3.708 4.038 69.451 67.467 167.226 176.396 167.226 254.958 0 1.368-.013 2.733-.04 4.094-1.58 81.185-68.857 145.731-150.058 145.731h56.655c81.2 0 148.477-64.546 150.058-145.731.026-1.362.04-2.727.04-4.094 0-80.147-101.764-191.905-171.397-258.996z"/></g><path d="m301.653 128.19c-.004-.004-.006-.007-.009-.011l-6.295-6.253c-8.435-8.379-8.99-21.756-1.463-30.821h-121.072c-10.399 0-18.83 8.43-18.83 18.83 0 10.399 8.43 18.83 18.83 18.83h129.401c-.187-.189-.376-.385-.562-.575z" fill="#e7a561"/></g></g><g><circle cx="256" cy="323.548" fill="#fff0af" r="121.714"/><path d="m256 201.834c-9.894 0-19.508 1.189-28.717 3.417 53.361 12.908 92.997 60.97 92.997 118.297s-39.637 105.389-92.997 118.297c9.209 2.228 18.823 3.417 28.717 3.417 67.221 0 121.714-54.493 121.714-121.714s-54.493-121.714-121.714-121.714z" fill="#ffe07d"/><path d="m271.492 315.544c-3.081-1.089-5.922-2.132-8.557-3.14v-43.954c7.726 1.479 12.352 5.441 12.71 5.757 3.138 2.849 7.992 2.638 10.871-.483 2.893-3.137 2.696-8.025-.441-10.918-.5-.462-9.097-8.194-23.141-9.996v-9.514c0-4.267-3.459-7.726-7.726-7.726-4.268 0-7.726 3.459-7.726 7.726v10.111c-1.563.316-3.162.713-4.798 1.206-12.247 3.689-21.402 14.184-23.89 27.387-2.262 12.003 1.558 23.557 9.971 30.155 4.689 3.678 10.568 7.045 18.717 10.628v54.932c-7.691-.402-12.617-1.992-21.039-7.502-3.569-2.336-8.359-1.335-10.695 2.236s-1.335 8.36 2.236 10.696c11.469 7.503 19.203 9.562 29.498 10.025v10.63c0 4.267 3.459 7.726 7.726 7.726 4.268 0 7.726-3.459 7.726-7.726v-11.204c19.868-3.475 31.468-19.662 34.008-34.775 3.209-19.083-6.781-35.678-25.45-42.277zm-33.191-15.548c-3.855-3.024-5.511-8.823-4.322-15.134 1.11-5.888 5.15-13.04 13.162-15.453.115-.035.227-.061.341-.095v36.379c-3.759-1.929-6.759-3.797-9.181-5.697zm43.403 55.263c-1.49 8.863-7.878 18.308-18.77 21.469v-47.835c1.106.401 2.24.808 3.406 1.22 17.159 6.065 16.098 20.78 15.364 25.146z" fill="#e49542"/></g></g><path d="m358.016 109.936c0-10.399-8.43-18.83-18.83-18.83h-57.363c-8.152 9.021-7.779 22.856.847 31.425l6.277 6.234h50.239c10.4 0 18.83-8.43 18.83-18.829z" fill="#df751c"/></g></svg>